<?xml version="1.0" encoding="UTF-8" standalone="no"?>
<svg
   xmlns:dc="http://purl.org/dc/elements/1.1/"
   xmlns:cc="http://creativecommons.org/ns#"
   xmlns:rdf="http://www.w3.org/1999/02/22-rdf-syntax-ns#"
   xmlns:svg="http://www.w3.org/2000/svg"
   xmlns="http://www.w3.org/2000/svg"
   id="svg68"
   xml:space="preserve"
   viewBox="0 0 64 92"
   version="1.1"
   height="92"
   width="64"><defs
     id="defs72" /><metadata
     id="metadata2"><rdf:RDF><cc:Work
         rdf:about=""><dc:format>image/svg+xml</dc:format><dc:type
           rdf:resource="http://purl.org/dc/dcmitype/StillImage" /><dc:title></dc:title></cc:Work></rdf:RDF></metadata><path
     style="stroke-width:1.85003"
     d="m 47.644551,32.913237 v -4.097078 h 0.458511 c -0.669229,-0.313877 -1.41296,-0.494568 -2.199503,-0.494568 H 19.31306 c -2.869216,0 -5.204326,2.33511 -5.204326,5.204322 v 26.588653 c 0,2.870693 2.33511,5.205801 5.204326,5.205801 h 26.590499 c 2.86903,0 5.204325,-2.335108 5.204325,-5.205801 V 33.525913 c 0,-0.207813 -0.01577,-0.411428 -0.03934,-0.612769 z"
     opacity="0.5"
     id="path4" /><path
     style="stroke-width:1.85003"
     d="M 45.29501,64.498826 H 18.704509 C 15.83511,64.498826 13.5,62.163714 13.5,59.293206 V 32.704555 c 0,-2.869399 2.33511,-5.204509 5.204509,-5.204509 H 45.29501 c 2.869028,0 5.204138,2.33511 5.204138,5.204509 v 26.588651 c 0,2.870323 -2.33511,5.20562 -5.204138,5.20562"
     fill="#ffffff"
     id="path6" /><path
     style="stroke-width:1.85003"
     d="m 48.937722,59.292836 c 0,2.012463 -1.631284,3.643637 -3.643452,3.643637 H 18.703769 c -2.012279,0 -3.643453,-1.631083 -3.643453,-3.643637 V 32.702333 c 0,-2.012464 1.631266,-3.643634 3.643453,-3.643634 H 45.29427 c 2.012279,0 3.643452,1.631096 3.643452,3.643634 z"
     fill="#90449e"
     id="path8" /><path
     style="stroke-width:1.85003"
     d="m 52.36768,33.122292 c -2.553227,-1.845444 -5.098314,-3.245696 -6.049971,-3.750014 0.766578,1.774531 1.049819,3.167254 1.058403,3.178355 -0.0055,-8.07e-4 -0.773166,-1.699606 -1.893139,-3.775175 -1.118287,-2.07962 -2.901773,-4.420465 -5.527893,-5.543065 -0.891161,-0.381586 -1.707617,-0.535436 -2.454807,-0.535436 -2.729905,-0.0095 -4.658935,2.109775 -5.446124,3.191488 -0.262425,0.35715 -0.390412,0.582687 -0.390412,0.583891 l -0.05461,0.09601 -0.100154,0.04512 c -0.844057,0.373226 -1.825777,1.397587 -2.598738,2.105336 -2.260183,2.050576 -3.637716,4.627852 -3.637716,7.42695 0,1.026991 0.18506,2.087206 0.585088,3.171139 0.728894,1.969543 1.974911,3.52764 3.636608,4.807677 1.898687,1.538542 1.792329,5.701982 1.823596,5.734543 v 4.399561 c 0.04393,0.04592 0.08222,0.08948 0.131761,0.139239 0.142724,0.141926 0.30866,0.294267 0.500544,0.44771 0.719494,0.576469 1.755459,1.142152 3.049593,1.142152 0.822449,-8.04e-4 1.757473,-0.228164 2.804091,-0.84267 l 0.06105,0.0076 c 0.461879,-3.168362 1.522909,-4.856147 3.211841,-5.689772 1.698366,-0.834697 3.885066,-0.827075 6.632176,-0.939833 2.728241,-0.105939 5.384517,-0.54084 7.384216,-1.624292 1.997851,-1.089703 3.354847,-2.770793 3.614036,-5.527893 0.0082,-0.0985 0.01052,-0.197899 0.01052,-0.296875 0.03801,-2.567475 -3.117116,-5.638155 -6.351526,-7.951063"
     fill="#f6bd6d"
     id="path10" /><path
     style="stroke-width:1.85003"
     d="m 25.449723,62.957748 4.147954,-7.552938 c 0,0 -7.20587,-3.16115 -10.849507,7.466172 v 0.08722 z"
     id="path14" /><path
     style="stroke-width:1.85003"
     d="m 33.356757,23.67788 c -0.0027,-0.0095 2.279794,-6.234791 2.277389,-11.993568 -0.01324,-4.4972415 -1.355259,-8.5943211 -6.15968,-9.3916845 l 0.06319,-0.384973 c 5.066495,0.8344751 6.500824,5.2355887 6.487134,9.7766755 -0.0012,5.85498 -2.299032,12.117522 -2.301068,12.128437 z"
     id="path16" /><path
     style="stroke-width:1.85003"
     d="m 34.272522,23.01372 c 0.01577,-0.0056 4.260438,-9.459951 11.667779,-9.492141 2.06815,0 4.364778,0.753166 6.847337,2.651649 l -0.238322,0.309437 c -2.430201,-1.857062 -4.637472,-2.570249 -6.609052,-2.570249 -3.52172,-0.0018 -6.352451,2.293114 -8.304976,4.618417 -1.950303,2.321975 -3.005191,4.63951 -3.007226,4.64506 z"
     id="path18" /><path
     style="stroke-width:1.85003"
     d="m 41.139839,26.493629 c 0.107399,0.264553 0.185314,0.549644 0.247703,0.842894 -0.0335,-0.256785 -0.08247,-0.506392 -0.151858,-0.744121 -0.03268,-0.03194 -0.06296,-0.0675 -0.09589,-0.09887"
     id="path20" /><path
     style="stroke-width:1.85003"
     d="m 43.896386,31.719968 c -0.175674,-1.808182 -1.234673,-3.705984 -2.608913,-5.072047 1.252916,1.47405 2.141782,3.475655 2.141782,5.296457 0,3.402023 -1.847831,4.882233 -4.662822,4.85818 -1.772309,-0.01324 -2.928227,-0.347547 -3.682301,-0.916412 0.776385,0.938874 2.117175,1.436012 4.563287,1.219078 2.856818,-0.25386 4.584194,-1.935688 4.249152,-5.385441"
     id="path22" /><path
     style="stroke-width:1.85003"
     d="m 36.586912,24.843401 c -0.0082,0.0019 -0.01577,0.0056 -0.02134,0.0076 -0.0624,0.0616 -0.121595,0.128528 -0.180231,0.196009 0.06668,-0.06962 0.131488,-0.141127 0.202984,-0.203224"
     id="path24" /><path
     style="stroke-width:1.85003"
     id="path28"
     fill="#ffffff"
     d="m 41.230492,26.57688 c 0.0014,0.0056 0.0019,0.0095 0.0027,0.01538 0.0187,0.01694 0.03536,0.03688 0.05301,0.05449 -0.0187,-0.02409 -0.03694,-0.0482 -0.0568,-0.07094" /><path
     style="stroke-width:1.85003"
     id="path30"
     fill="#ffffff"
     d="m 41.287843,26.647181 c -0.0187,-0.01979 -0.03507,-0.0369 -0.05303,-0.05451 0.06941,0.238079 0.118382,0.487555 0.152092,0.744156 0.02705,0.208349 0.04658,0.420234 0.04658,0.638353 0,2.168236 -1.359273,3.925582 -3.036269,3.925582 -1.676963,0 -3.036458,-1.757494 -3.036458,-3.925582 0,-1.166759 0.39759,-2.208938 1.022736,-2.927861 0.05868,-0.0675 0.117857,-0.134448 0.180232,-0.195824 0.11918,-0.117214 0.243426,-0.226001 0.375387,-0.319501 -2.369334,0.36638 -3.269189,2.959865 -3.269189,6.111024 0,2.228547 -0.0187,4.162202 1.414349,5.242805 0.753963,0.568902 1.909973,0.901777 3.682486,0.916615 2.815011,0.02409 4.662822,-1.456437 4.662822,-4.858366 0,-1.820599 -0.88896,-3.822537 -2.141782,-5.296457" /><path
     style="stroke-width:1.85003"
     id="path32"
     d="m 35.36034,27.975504 c 0,2.168051 1.359478,3.925581 3.036459,3.925581 1.676941,0 3.036271,-1.757493 3.036271,-3.925581 0,-0.493534 -0.07363,-0.963884 -0.202449,-1.398938 -1.077643,-1.242684 -2.415402,-2.092942 -3.700432,-2.092942 -0.207814,0 -0.402622,0.01979 -0.591513,0.04876 -0.940426,0.667012 -1.57841,1.958445 -1.57841,3.44328" /><path
     style="stroke-width:1.85003"
     id="path34"
     fill="#ffffff"
     d="m 38.897602,26.998687 c 0,0.838879 -0.56365,1.518932 -1.258503,1.518932 -0.695446,0 -1.258521,-0.680073 -1.258521,-1.518932 0,-0.838692 0.563075,-1.518949 1.258521,-1.518949 0.694853,0 1.258503,0.680257 1.258503,1.518949" /><path
     style="stroke-width:1.85003"
     id="path36"
     fill="#231e1f"
     d="m 30.418907,53.994346 5.88e-4,-5.94e-4 c -4.01e-4,-3.8e-4 -5.88e-4,-3.8e-4 -5.88e-4,-3.8e-4 z" /><path
     style="stroke-width:1.85003"
     id="path38"
     fill="#231e1f"
     d="m 38.431392,55.363369 c 0.02134,-0.01324 0.04419,-0.02697 0.06666,-0.04169 L 38.209796,54.89062 c -0.137369,0.09161 -0.27199,0.174428 -0.405619,0.253081 l 0.419847,0.04935 c 0,0 0.07659,0.06156 0.207277,0.170203" /><path
     style="stroke-width:1.85003"
     id="path40"
     fill="#f6bd6d"
     d="m 30.849964,54.325502 0.600115,0.07114 -0.131994,-0.01538 z" /><path
     style="stroke-width:1.85003"
     id="path42"
     fill="#f6bd6d"
     d="m 45.864822,28.395461 c 0.321701,0.163873 1.662141,0.85551 3.338749,1.855025 -0.328306,-2.057417 -2.709369,-4.638398 -4.123903,-5.900118 -0.494773,-0.444286 -0.888553,-0.565482 -1.196824,-0.566481 -0.307883,-9.74e-4 -0.557062,0.127574 -0.734925,0.262705 -0.130689,0.09926 -0.211014,0.192851 -0.245017,0.235639 l -0.0273,0.0593 c 1.332835,1.207033 2.299772,2.685136 2.98928,4.053788" /><path
     style="stroke-width:1.85003"
     id="path44"
     d="m 43.472729,48.90306 c 0,0 -3.036271,-2.515859 -6.940022,-1.301219 0,0 5.205802,-0.173649 5.812613,1.734645 z" /><path
     style="stroke-width:1.85003"
     id="path46"
     fill="#9c61a4"
     d="m 29.332939,1.9261547 c 0,0.4550706 -0.368988,0.824263 -0.824264,0.824263 -0.454884,0 -0.824059,-0.3691924 -0.824059,-0.824263 0,-0.4549042 0.369175,-0.8240782 0.824059,-0.8240782 0.455276,0 0.824264,0.3691925 0.824264,0.8240782" /><path
     d="m 29.332939,1.9261547 c 0,0.4550706 -0.368988,0.824263 -0.824264,0.824263 -0.454884,0 -0.824059,-0.3691924 -0.824059,-0.824263 0,-0.4549042 0.369175,-0.8240782 0.824059,-0.8240782 0.455276,0 0.824264,0.3691925 0.824264,0.8240782 z"
     fill="#5f122b"
     stroke="#000000"
     stroke-width="0.100153"
     id="path50" /><path
     style="stroke-width:1.85003"
     d="m 53.797753,16.674402 c 0,0.455089 -0.368949,0.824262 -0.823855,0.824262 -0.45509,0 -0.824039,-0.369173 -0.824039,-0.824262 0,-0.454886 0.368949,-0.824078 0.824039,-0.824078 0.454886,0 0.823855,0.369211 0.823855,0.824078"
     fill="#5f122b"
     id="path52" /><path
     id="path56"
     stroke-width="0.100153"
     stroke="#000000"
     fill="none"
     d="m 53.797753,16.674402 c 0,0.455089 -0.368949,0.824262 -0.823855,0.824262 -0.45509,0 -0.824039,-0.369173 -0.824039,-0.824262 0,-0.454886 0.368949,-0.824078 0.824039,-0.824078 0.454886,0 0.823855,0.369211 0.823855,0.824078 z" /><path
     style="stroke-width:1.85003"
     d="m 39.569163,55.85178 c 0,-0.42647 -0.313061,-0.772611 -0.699461,-0.772611 -0.257892,0 -0.480341,0.155499 -0.601907,0.384787 -1.189218,0.744767 -2.289044,1.042991 -3.261974,1.042991 h -0.0055 c -2.102192,-0.0095 -3.545217,-1.305768 -4.193467,-2.032629 l 0.02705,-0.257079 -0.423028,0.162334 -0.552846,0.292844 -0.179141,0.114175 -0.09747,0.48776 0.143289,0.289844 -0.01597,0.01977 c 0.245036,0.26404 0.659592,0.672618 1.230067,1.086488 0.954636,0.692854 2.313835,1.377497 3.946672,1.376516 1.208052,-0.0012 2.575985,-0.27003 4.075063,-1.316039 0.341517,-0.05143 0.60992,-0.487149 0.60992,-0.878522"
     fill="#ffffff"
     id="path58" /><path
     style="stroke-width:1.85003"
     d="m 58.707738,41.369731 c -0.259225,2.757286 -1.616446,4.438227 -3.614037,5.528078 -1.999699,1.083267 -4.656343,1.517914 -7.3844,1.62407 -2.746742,0.113027 -4.933663,0.105179 -6.631806,0.939834 -1.689193,0.833699 -2.750074,2.521224 -3.212025,5.689772 l -0.06078,-0.0076 c -1.0466,0.614339 -1.981569,0.841654 -2.804092,0.84269 -1.294356,0 -2.330302,-0.565868 -3.049778,-1.142357 -0.191993,-0.153376 -0.357557,-0.305848 -0.500359,-0.447672 l -0.600115,-0.07077 0.468097,0.05507 0.132014,0.01538 c -0.04981,-0.04972 -0.08785,-0.09332 -0.132014,-0.139219 v -4.399375 c -0.03133,-0.03248 0.07525,-4.195872 -1.823559,-5.734544 -1.661327,-1.279962 -2.907509,-2.837947 -3.636606,-4.80749 -0.399996,-1.083879 -0.584868,-2.144185 -0.584868,-3.170954 0,-2.799098 1.377477,-5.376561 3.637716,-7.426951 0.772979,-0.70749 1.754681,-1.732074 2.598738,-2.105335 l 0.100154,-0.04496 0.05463,-0.09601 c 0,-0.0011 0.128002,-0.226815 0.390189,-0.583891 0.78719,-1.081676 2.716402,-3.202033 5.446123,-3.191488 0.74732,0 1.563776,0.153766 2.454621,0.535621 2.625936,1.122507 4.409737,3.463261 5.52808,5.54288 1.119715,2.07555 1.886848,3.774435 1.892953,3.77536 -0.0082,-0.0095 -0.291658,-1.403972 -1.058218,-3.178355 0.951454,0.503968 3.496743,1.904423 6.049973,3.749829 3.234226,2.312725 6.389453,5.383406 6.351526,7.951249 0,0.09887 -0.0027,0.198176 -0.01052,0.296672 M 39.282197,56.275904 c -0.03213,0.08547 -0.07873,0.162919 -0.135247,0.224669 -0.296228,0.320905 -0.750132,0.506186 -1.136123,0.692854 -0.666825,0.321703 -1.317998,0.630768 -2.053904,0.754981 -0.351339,0.0591 -0.715502,0.09755 -1.072446,0.0983 -1.632689,9.74e-4 -2.99187,-0.683661 -3.946672,-1.376517 -0.547406,-0.3972 -0.946828,-0.785968 -1.195195,-1.050188 -0.0027,-0.01324 -0.0055,-0.02409 -0.0082,-0.03616 -0.211033,-0.815252 0.768948,-1.087281 1.039367,-1.146371 0.631583,0.719514 2.089612,2.059825 4.231762,2.07 0.949437,0 1.908308,-0.275044 2.733978,-0.736553 0.261889,-0.145724 0.549052,-0.30346 0.780194,-0.495549 0.04578,-0.03827 0.29545,0.09906 0.336094,0.121439 0.131489,0.0717 0.254677,0.165412 0.353135,0.279208 0.142471,0.163113 0.147009,0.402066 0.0726,0.600334 m 3.620512,-31.994445 c 0.03402,-0.04282 0.114332,-0.136142 0.245035,-0.235636 0.178089,-0.135188 0.427044,-0.263798 0.73511,-0.262725 0.308105,9.74e-4 0.702088,0.122199 1.196639,0.566481 1.414534,1.261777 3.795525,3.842701 4.123905,5.900118 C 47.52641,29.250612 46.185916,28.559348 45.86401,28.39512 45.174373,27.026412 44.20749,25.548292 42.874729,24.341332 Z m 9.863071,8.290363 c -1.003528,-0.72451 -2.046504,-1.400178 -3.01185,-1.99008 -0.138441,-2.460727 -2.806497,-5.22449 -4.325743,-6.618674 -0.559247,-0.50737 -1.088245,-0.7029 -1.54535,-0.70068 -0.871309,0.0095 -1.347026,0.642387 -1.412535,0.727693 -0.663829,-0.542614 -1.40854,-1.017961 -2.247419,-1.38192 -0.967677,-0.415034 -1.879634,-0.590288 -2.721582,-0.590288 -3.767774,0.0268 -5.980783,3.402393 -6.364478,4.021598 -1.005308,0.495771 -1.950673,1.519692 -2.680326,2.176376 -2.36434,2.143078 -3.85935,4.89796 -3.85935,7.927941 0,1.108669 0.201117,2.250378 0.626752,3.405352 0.775571,2.099787 2.115141,3.769625 3.858241,5.109601 0.716074,0.533235 1.155753,1.837619 1.353853,3.011853 0.20539,1.17118 0.204317,2.183593 0.206204,2.186368 v 4.074695 c -1.88185,0.207943 -1.399453,1.895171 -1.399453,1.895171 l 0.03213,0.05089 c -0.0012,4.19e-4 -0.0025,8e-4 -0.0027,0.0012 0.659,0.724106 2.696975,2.677552 5.612626,2.687542 h 0.0055 c 1.410129,0 3.011109,-0.493366 4.708884,-1.77392 0.114059,-0.06236 0.219043,-0.158732 0.219043,-0.158732 l 0.0027,-0.0056 c 0.01052,-0.0076 0.02134,-0.01324 0.03163,-0.02409 -0.0027,-0.0019 -0.0082,-0.0076 -0.01052,-0.0095 l 0.0055,-0.0095 c 0,0 0.442861,-1.559004 -1.234672,-1.820782 0.488519,-2.744337 1.406524,-4.014755 2.765242,-4.694826 1.468055,-0.738144 3.59683,-0.766984 6.358001,-0.870366 2.780412,-0.111683 5.525489,-0.543206 7.67911,-1.705802 2.155843,-1.154382 3.704691,-3.095844 3.965914,-6.062369 0.01052,-0.120485 0.01577,-0.238857 0.01577,-0.357148 -0.03616,-3.088074 -3.373163,-6.123049 -6.630884,-8.499782"
     id="path60" /><path
     style="stroke-width:1.85003"
     d="m 44.786252,62.957748 c -0.65221,-2.149182 -3.209065,-4.77086 -4.933664,-6.353007 -1.793327,1.429019 -3.483054,1.962699 -4.963819,1.962699 h -0.0055 c -2.915652,-0.0095 -4.953461,-1.963624 -5.612442,-2.687542 -3.635127,1.652134 -5.459998,5.97597 -5.875145,7.07785 z"
     fill="#c7584d"
     id="path62" /><path
     style="stroke-width:1.85003"
     d="m 23.682945,62.935548 c 0.19361,-0.498991 0.603924,-1.461451 1.259335,-2.540647 0.927011,-1.528737 2.338067,-3.264566 4.268945,-4.200684 0.79161,0.829093 2.808163,2.616871 5.672012,2.632043 h 0.0055 c 1.494474,9.74e-4 3.183719,-0.524003 4.950498,-1.881669 1.682178,1.551344 4.034178,4.033994 4.67244,5.990957 h 0.538104 C 44.37996,60.658901 41.77578,58.026304 40.028425,56.411227 l -0.163854,-0.1503 -0.174837,0.13883 c -1.756088,1.39855 -3.383153,1.905349 -4.801017,1.906274 h -0.0055 c -2.791698,-0.0056 -4.783071,-1.898689 -5.419668,-2.602255 l -0.128528,-0.140368 -0.172189,0.07764 c -3.83974,1.761192 -5.665351,6.293991 -6.035356,7.294303 z"
     id="path64" /></svg>
